<mxfile host="app.diagrams.net" modified="2021-02-09T10:52:32.803Z" agent="5.0 (Windows NT 10.0; Win64; x64) AppleWebKit/537.36 (KHTML, like Gecko) Chrome/88.0.4324.146 Safari/537.36" etag="lpXKZVSAeCPytYGk4sh-" version="14.3.0" type="github">
  <diagram id="a-bHq1KkwQbsTztBTE07" name="Page-1">
    <mxGraphModel dx="868" dy="488" grid="1" gridSize="10" guides="1" tooltips="1" connect="1" arrows="1" fold="1" page="1" pageScale="1" pageWidth="827" pageHeight="1169" math="0" shadow="0">
      <root>
        <mxCell id="0" />
        <mxCell id="1" parent="0" />
        <mxCell id="Kt-GRtBH2peXFJSDINZT-1" value="FORECASTING ENGINE" style="rounded=1;whiteSpace=wrap;html=1;direction=south;" vertex="1" parent="1">
          <mxGeometry x="275" y="10" width="200" height="230" as="geometry" />
        </mxCell>
        <mxCell id="Kt-GRtBH2peXFJSDINZT-2" value="CLUSTER DEMAND" style="text;html=1;resizable=0;autosize=1;align=center;verticalAlign=middle;points=[];fillColor=none;strokeColor=none;rounded=0;" vertex="1" parent="1">
          <mxGeometry x="310" y="50" width="130" height="20" as="geometry" />
        </mxCell>
        <mxCell id="Kt-GRtBH2peXFJSDINZT-3" value="CLUSTER GENERATION" style="text;html=1;resizable=0;autosize=1;align=center;verticalAlign=middle;points=[];fillColor=none;strokeColor=none;rounded=0;" vertex="1" parent="1">
          <mxGeometry x="300" y="30" width="150" height="20" as="geometry" />
        </mxCell>
      </root>
    </mxGraphModel>
  </diagram>
</mxfile>
